<svg baseProfile="tiny" xmlns="http://www.w3.org/2000/svg" viewBox="0 0 56.69 56.69"><path fill="#A7A9AC" d="M54.404 43.41a4.925 4.925 0 00.43-2.224V13.978a5.284 5.284 0 00-1.283-3.469 1.425 1.425 0 00-.445-.459 5.286 5.286 0 00-3.572-1.372H7.486a5.278 5.278 0 00-5.3 5.3v27.207c0 .675.125 1.318.351 1.91.004.415.153.832.473 1.152.11.11.232.209.362.293a5.282 5.282 0 004.114 1.945h42.165c1.641 0 3.162-.795 4.127-2.037.081-.061.159-.129.231-.201a1.83 1.83 0 00.395-.837zM37.762 26.554L51.3 14.573V39.33L37.762 26.554zM5.72 39.329V14.468L19.315 26.5 5.72 39.329zm2.735-27.117h40.227L28.569 29.996 8.455 12.212zm41.079 30.74H7.486c-.121 0-.24-.014-.356-.04L21.948 28.83l5.443 4.817c.353.353.707.471 1.178.471.353 0 .824-.236 1.178-.471l5.383-4.764L49.972 42.89a1.643 1.643 0 01-.438.062z"/></svg>