<svg baseProfile="tiny" xmlns="http://www.w3.org/2000/svg" viewBox="0 0 56.69 56.69"><path fill="#FFD41C" d="M42.916 1.024l-7.09-.011c-7.966 0-13.114 5.282-13.114 13.456v6.204h-7.129c-.616 0-1.115.499-1.115 1.115v8.989c0 .616.499 1.115 1.115 1.115h7.129v22.682c0 .616.499 1.115 1.115 1.115h9.301c.616 0 1.115-.499 1.115-1.115V31.893h8.336c.616 0 1.115-.499 1.115-1.115l.003-8.989a1.114 1.114 0 00-1.116-1.115h-8.338v-5.259c0-2.528.602-3.811 3.895-3.811l4.776-.002c.615 0 1.114-.499 1.114-1.115V2.139a1.113 1.113 0 00-1.112-1.115z"/></svg>