<svg baseProfile="tiny" xmlns="http://www.w3.org/2000/svg" viewBox="0 0 56.69 56.69"><path fill="#FFD41C" d="M29.313 1.693c6.715.002 13.43.001 20.146.006 3.53.003 6.125 2.615 6.125 6.165-.001 13.43-.004 26.861-.01 40.291-.002 3.592-2.601 6.173-6.213 6.172-13.4-.001-26.8-.049-40.2.021-3.371.018-6.272-2.877-6.25-6.289.085-13.368.089-26.739.01-40.108-.02-3.385 2.851-6.359 6.338-6.297 6.683.119 13.369.037 20.054.039zM13.381 23.915l-4.138-.001v.954c-.002 7.078-.005 14.156-.004 21.233 0 1.364.411 1.782 1.795 1.783 12.151.007 24.301.011 36.452.009 1.377 0 1.793-.425 1.794-1.787.004-7.078.005-14.156.004-21.233 0-.32-.03-.641-.048-1.011l-2.101-.001h-1.983c2.692 10.898-5.482 20.098-15.009 20.566-4.327.213-8.231-1.059-11.501-3.933-5.041-4.431-6.556-10.058-5.261-16.579zm15.947-5.958c-5.643-.002-10.217 4.48-10.227 10.024-.011 5.737 4.476 10.241 10.19 10.231 5.623-.011 10.132-4.505 10.137-10.104.006-5.608-4.512-10.148-10.1-10.151zm10.186-4.968l-.001 2.732.001.182c.026 1.22.76 2.003 1.97 2.019 1.943.025 3.886.027 5.829.001 1.206-.016 1.962-.809 1.971-2.025.014-1.943.016-3.886.001-5.829-.009-1.163-.691-1.905-1.839-1.925a177.262 177.262 0 00-6.101-.001c-1.159.02-1.807.742-1.826 1.931-.015.972-.003 1.944-.005 2.915z"/></svg>