<svg baseProfile="tiny" xmlns="http://www.w3.org/2000/svg" viewBox="0 0 214.53 46.91"><path d="M24.771 31.851h8.378v3.218H20.871V14.108h3.899v17.743zm16.118 3.218h-3.913V14.108h3.913v20.961zm19.605-.311c-1.202.362-2.49.544-3.862.544-1.712 0-3.26-.266-4.647-.797-1.387-.531-2.571-1.27-3.55-2.218a9.71 9.71 0 01-2.269-3.392c-.532-1.315-.798-2.749-.798-4.305 0-1.575.257-3.02.768-4.334.513-1.314 1.24-2.444 2.182-3.392s2.086-1.682 3.428-2.204c1.344-.522 2.852-.782 4.524-.782.849 0 1.644.067 2.384.203.74.135 1.425.321 2.059.558.632.237 1.21.525 1.731.863.523.339 1 .711 1.436 1.116l-1.117 1.769c-.174.28-.4.451-.681.514-.279.063-.585-.008-.914-.21l-.955-.55a6.102 6.102 0 00-1.066-.478 8.737 8.737 0 00-1.319-.334 9.707 9.707 0 00-1.689-.13c-1.032 0-1.969.174-2.805.522a5.932 5.932 0 00-2.137 1.493c-.591.647-1.044 1.426-1.363 2.334-.319.909-.479 1.923-.479 3.044 0 1.199.172 2.269.515 3.211.344.942.827 1.739 1.45 2.391a6.16 6.16 0 002.254 1.493c.88.344 1.861.515 2.942.515.774 0 1.465-.08 2.072-.24a9.613 9.613 0 001.784-.66V27.49h-2.639c-.251 0-.447-.07-.587-.21a.699.699 0 01-.21-.514V24.56h6.957v8.48a11.119 11.119 0 01-3.399 1.718zm25.882.311h-3.915v-9.162h-9.843v9.162h-3.913V14.108h3.913v9.016h9.843v-9.016h3.915v20.961zm20.352-20.961v3.204h-6.321v17.757h-3.899V17.312h-6.319v-3.204h16.539zm22.163 3.813c-.115.203-.238.35-.37.443a.817.817 0 01-.485.138c-.202 0-.423-.075-.659-.226a19.742 19.742 0 00-.849-.499 6.873 6.873 0 00-1.151-.5c-.44-.15-.959-.225-1.559-.225-.54 0-1.014.065-1.419.195-.406.13-.747.311-1.023.544-.276.232-.481.51-.615.833a2.724 2.724 0 00-.204 1.065c0 .493.138.904.413 1.232s.64.609 1.095.841c.455.231.972.44 1.551.623.579.184 1.174.379 1.782.587.61.208 1.204.449 1.784.725a6.192 6.192 0 011.551 1.044c.453.42.819.935 1.095 1.544s.413 1.348.413 2.218c0 .947-.162 1.834-.487 2.659a6.115 6.115 0 01-1.419 2.16c-.625.614-1.385 1.097-2.284 1.45-.898.353-1.927.529-3.088.529a9.904 9.904 0 01-1.97-.196 10.338 10.338 0 01-1.863-.558 9.892 9.892 0 01-1.674-.87 7.953 7.953 0 01-1.391-1.131l1.144-1.869a1.23 1.23 0 01.377-.341.95.95 0 01.493-.138c.242 0 .502.099.783.297.279.198.613.418 1 .66.385.242.838.461 1.355.66.517.198 1.138.297 1.863.297 1.11 0 1.97-.263 2.58-.791.608-.527.914-1.283.914-2.268 0-.551-.138-1-.413-1.349a3.358 3.358 0 00-1.095-.877 8.247 8.247 0 00-1.551-.602 51.873 51.873 0 01-1.769-.536 15.229 15.229 0 01-1.769-.696 5.767 5.767 0 01-1.551-1.058 4.814 4.814 0 01-1.093-1.631c-.276-.653-.413-1.457-.413-2.414 0-.763.151-1.507.457-2.232a5.769 5.769 0 011.325-1.928c.579-.561 1.295-1.01 2.146-1.349.849-.338 1.827-.507 2.927-.507 1.238 0 2.378.193 3.422.579 1.044.387 1.933.928 2.667 1.623l-.973 1.845zm8.255-3.791c.121.015.227.044.319.088.091.043.181.106.268.188s.183.192.289.327l10.989 14.031c-.03-.338-.053-.671-.074-.999a15.86 15.86 0 01-.028-.914V14.108h3.435v20.961h-2.001c-.31 0-.568-.051-.776-.152-.208-.102-.408-.273-.6-.515l-10.945-13.958a19.516 19.516 0 01.087 1.753v12.872h-3.435V14.108h2.044c.164 0 .307.008.428.022zm42.086 20.939V14.108h7.219c1.372 0 2.546.131 3.522.392s1.776.633 2.399 1.116a4.331 4.331 0 011.37 1.753c.291.687.434 1.46.434 2.32 0 .493-.072.964-.217 1.414-.145.449-.37.869-.674 1.261a5.039 5.039 0 01-1.159 1.065c-.47.319-1.027.59-1.674.812 2.878.647 4.318 2.204 4.318 4.668 0 .889-.168 1.71-.508 2.464a5.424 5.424 0 01-1.478 1.95c-.647.546-1.444.974-2.391 1.283-.947.31-2.029.464-3.246.464h-7.915zm3.9-11.886h3.103c1.333 0 2.34-.242 3.022-.725.681-.483 1.021-1.251 1.021-2.305 0-1.092-.31-1.87-.927-2.334-.619-.464-1.585-.696-2.899-.696h-3.32v6.06zm0 2.696v6.145h3.943c.725 0 1.334-.087 1.827-.26.493-.174.885-.406 1.182-.696.294-.291.508-.629.638-1.015.13-.386.194-.796.194-1.232 0-.454-.072-.863-.217-1.225-.145-.362-.372-.672-.681-.928s-.708-.452-1.195-.587c-.489-.135-1.076-.203-1.763-.203h-3.928z"/><path fill="none" stroke="#FFDE17" stroke-width="2.899" stroke-miterlimit="10" d="M.519-1.07h214.533v49.846H.519z"/><path fill="#FFDE17" d="M163.791-1.033h3.986v13.348h-3.986zm17.274 48.882l-30.561.121 7.066-18.079h16.428z"/><path d="M175.921 34.827h.004l-2.018-5.138h-.004l-6.12-15.582h-3.973l-6.072 15.431h-.003l-2.022 5.138h.004l-.155.393h3.044c.328 0 .604-.092.827-.276.223-.183.372-.386.449-.609l.128-.349c.006-.015.018-.029.023-.044l1.427-3.901h8.662l1.483 4.052.004.006.086.236c.106.251.266.461.479.63.211.169.487.254.825.254h3.016l-.094-.241zm-13.474-7.673l2.552-6.943c.125-.319.253-.691.383-1.116.132-.425.264-.884.4-1.377.134.493.27.949.406 1.37.134.42.264.785.391 1.094l2.552 6.972h-6.684z"/></svg>