<svg baseProfile="tiny" xmlns="http://www.w3.org/2000/svg" viewBox="0 0 56.69 56.69"><g fill="#A7A9AC"><path d="M29.611 53.595c.185.011.369.022.543.022 2.009 0 3.692-.728 5.006-2.161l.043-.043c.434-.521.934-.999 1.466-1.509a26.39 26.39 0 001.097-1.097c1.781-1.857 1.77-4.3-.022-6.092l-4.637-4.637c-.858-.901-1.9-1.368-2.997-1.368-1.086 0-2.139.467-3.019 1.357l-2.563 2.563c-.174-.098-.358-.185-.532-.271-.293-.152-.576-.293-.814-.445-2.487-1.575-4.745-3.638-6.895-6.287-1.021-1.281-1.716-2.378-2.204-3.431a60.397 60.397 0 001.868-1.835l.717-.717c.912-.912 1.39-1.965 1.39-3.051s-.478-2.139-1.39-3.051l-2.302-2.302c-.261-.261-.521-.532-.782-.793a42.149 42.149 0 00-1.575-1.564c-.858-.858-1.889-1.314-2.975-1.314-1.075 0-2.117.445-3.019 1.314L3.126 19.77c-1.108 1.118-1.748 2.476-1.879 4.04-.206 2.498.532 4.821 1.097 6.352 1.368 3.703 3.431 7.145 6.483 10.826 3.714 4.43 8.188 7.938 13.291 10.403 1.944.923 4.561 2.02 7.493 2.204zM10.858 39.272c-2.856-3.431-4.767-6.624-6.038-10.045-.771-2.074-1.064-3.681-.934-5.201.076-.934.445-1.716 1.14-2.411l2.845-2.845c.261-.25.673-.554 1.162-.554.467 0 .858.293 1.129.565.51.478.999.977 1.52 1.509.261.271.532.543.804.814l2.302 2.302c.282.282.608.706.608 1.173s-.337.89-.608 1.173c-.25.25-.489.489-.728.738-.706.717-1.379 1.401-2.107 2.052l-.054.054c-.793.793-.652 1.585-.478 2.107.011.033.022.054.033.087.608 1.466 1.455 2.856 2.769 4.506 2.346 2.888 4.811 5.136 7.536 6.863.347.228.706.402 1.053.576.293.152.576.293.814.445.043.022.076.043.119.065.836.413 1.661.271 2.335-.413l2.888-2.888c.261-.261.673-.576 1.14-.576.456 0 .836.304 1.097.576l4.658 4.658c.771.771.771 1.542-.033 2.378-.315.337-.662.662-1.021 1.01-.543.532-1.118 1.075-1.64 1.694-.814.869-1.77 1.271-3.03 1.271-.13 0-.25 0-.38-.011-2.476-.163-4.789-1.129-6.515-1.955-4.742-2.3-8.911-5.568-12.386-9.717z"/><path d="M33.292 32.67c1.455.358 2.954.543 4.474.543 9.23 0 16.734-6.657 16.734-14.833S46.996 3.546 37.766 3.546 21.033 10.192 21.033 18.38c0 3.138 1.129 6.2 3.193 8.72a4.68 4.68 0 01-1.607 1.792 1.75 1.75 0 00-.749 1.857 1.747 1.747 0 001.466 1.347c1.423.195 4.181.304 6.754-1.249.63-.38.836-1.194.456-1.824s-1.194-.836-1.824-.456c-.956.576-1.976.836-2.878.934.5-.63.89-1.357 1.194-2.172a1.346 1.346 0 00-.271-1.368c-2.009-2.183-3.073-4.8-3.073-7.59 0-6.711 6.309-12.173 14.073-12.173S51.84 11.66 51.84 18.371s-6.31 12.171-14.074 12.171c-1.303 0-2.595-.152-3.844-.456a1.331 1.331 0 00-1.607.977 1.326 1.326 0 00.977 1.607z"/><circle cx="37.766" cy="18.38" r="1.412"/><circle cx="42.794" cy="18.38" r="1.412"/><circle cx="32.739" cy="18.38" r="1.412"/></g></svg>