<?xml version="1.0" encoding="utf-8"?>
<!-- Generator: Adobe Illustrator 24.0.1, SVG Export Plug-In . SVG Version: 6.00 Build 0)  -->
<svg version="1.1" id="Layer_1" xmlns="http://www.w3.org/2000/svg" xmlns:xlink="http://www.w3.org/1999/xlink" x="0px" y="0px"
	 viewBox="0 0 297.6 243.8" style="enable-background:new 0 0 297.6 243.8;" xml:space="preserve">
<style type="text/css">
	.st0{fill:url(#SVGID_1_);}
	.st1{fill:#FDB913;}
	.st2{fill:#0E1011;}
</style>
<g>
	
		<linearGradient id="SVGID_1_" gradientUnits="userSpaceOnUse" x1="28.8447" y1="110.2522" x2="227.6498" y2="137.362" gradientTransform="matrix(1 0 0 -1 0 244.9291)">
		<stop  offset="0.1022" style="stop-color:#000000"/>
		<stop  offset="0.1569" style="stop-color:#1F1E1D"/>
		<stop  offset="0.2456" style="stop-color:#47433E"/>
		<stop  offset="0.357" style="stop-color:#69604F"/>
		<stop  offset="0.4867" style="stop-color:#927E54"/>
		<stop  offset="0.6302" style="stop-color:#C99F46"/>
		<stop  offset="0.7473" style="stop-color:#FDB913"/>
		<stop  offset="0.7792" style="stop-color:#FDB918;stop-opacity:0.8736"/>
		<stop  offset="0.811" style="stop-color:#FEBC27;stop-opacity:0.748"/>
		<stop  offset="0.8427" style="stop-color:#FEC13E;stop-opacity:0.6226"/>
		<stop  offset="0.8744" style="stop-color:#FFC85B;stop-opacity:0.4972"/>
		<stop  offset="0.906" style="stop-color:#FFD17A;stop-opacity:0.3718"/>
		<stop  offset="0.9377" style="stop-color:#FFDD9D;stop-opacity:0.2464"/>
		<stop  offset="0.9689" style="stop-color:#FFEBC8;stop-opacity:0.1231"/>
		<stop  offset="1" style="stop-color:#FFFFFF;stop-opacity:0"/>
	</linearGradient>
	<path class="st0" d="M123.6,233.3C62.1,233.3,12,183.2,12,121.6S62.1,10.1,123.6,10.1c44.6,0,83.1,26.2,101,64.1h5.7
		C212.2,33.5,171.2,5,123.7,5C59.3,5,6.9,57.3,6.9,121.7s52.4,116.8,116.8,116.8c47.5,0,88.5-28.5,106.6-69.3h-5.7
		C206.7,207,168.1,233.3,123.6,233.3z"/>
	<path d="M123.6,233.3c-54.9,0-100.5-39.8-109.8-92c-1.7,0.2-3.4,0.5-5.2,0.7c9.7,54.8,57.5,96.5,115,96.5
		c47.5,0,88.5-28.5,106.6-69.3h-5.7C206.7,207,168.1,233.3,123.6,233.3z"/>
	<g>
		<g>
			<path d="M82.3,85.6h11.9c6.9,0,12.6,4.3,12.6,11.9v19c0,7.6-5.6,11.8-12.6,11.8h-6v29.6h-5.8L82.3,85.6L82.3,85.6z M94.1,123.3
				c3.7,0,6.7-2.5,6.7-6.8v-19c0-4.3-3-6.9-6.7-6.9h-6v32.7L94.1,123.3L94.1,123.3z"/>
			<path d="M143.2,117.6v28.8c0,7.6-5.6,11.8-12.6,11.8c-6.9,0-12.4-4.2-12.4-11.8v-28.8c0-7.6,5.6-11.9,12.4-11.9
				C137.6,105.8,143.2,110.2,143.2,117.6z M124.1,146.4c0,4.3,3,6.8,6.6,6.8c3.7,0,6.7-2.5,6.7-6.8v-28.8c0-4.3-3-6.9-6.7-6.9
				c-3.6,0-6.6,2.6-6.6,6.9V146.4z"/>
			<path d="M163,157.8h-5.8v-51.6h5.8v5.4c2.5-3.7,6.3-5.7,10.6-5.7c4.8,0,8.7,3.2,8.7,8.9v43.2h-5.8v-41.8c0-3.4-2.4-5.3-5.1-5.3
				c-4.7,0-8.3,3.2-8.3,8.5L163,157.8L163,157.8z"/>
			<path d="M213.4,157.5c-1,0.2-2.6,0.6-5.1,0.6c-6.7,0-12.2-4.2-12.2-11.9V93.7h5.8V106h11.4v5H202v35.2c0,4.3,3,6.9,6.9,6.9
				c1.8,0,3.5-0.4,4.4-0.8L213.4,157.5L213.4,157.5z"/>
			<rect x="225.6" y="85.6" class="st1" width="5.8" height="9.7"/>
			<rect x="225.6" y="106.2" class="st2" width="5.8" height="51.6"/>
			<path d="M252.1,157.8h-5.8v-51.6h5.8v5.4c2.5-3.7,6.3-5.7,10.6-5.7c4.8,0,8.7,3.2,8.7,8.9v43.2h-5.8v-41.8c0-3.4-2.4-5.3-5.1-5.3
				c-4.7,0-8.3,3.2-8.3,8.5L252.1,157.8L252.1,157.8z"/>
			<path d="M285.2,85.6h5.8v9.7h-5.8V85.6z M285.2,106.2h5.8v51.6h-5.8V106.2z"/>
		</g>
	</g>
	<g>
		<g>
			<path d="M82,187.3v-16.8h2v15h6.1v1.8H82z"/>
			<path d="M94.5,187.3v-16.8h2v16.8H94.5z"/>
			<path d="M101.4,178.9c0-5.2,2.6-8.7,6.5-8.7c2.5,0,4,1.4,5,3.2l-1.6,0.9c-0.7-1.3-1.8-2.2-3.4-2.2c-2.7,0-4.5,2.8-4.5,6.9
				c0,4.1,1.7,6.9,4.5,6.9c1.4,0,2.6-0.7,3.2-1.4v-3.9h-4v-1.7h5.9v6.5c-1.2,1.5-3,2.5-5.1,2.5C104,187.6,101.4,184.1,101.4,178.9z"
				/>
			<path d="M127,187.3v-7.8h-6.9v7.8h-2v-16.8h2v7.3h6.9v-7.3h2v16.8H127z"/>
			<path d="M137.3,187.3v-15.1h-4v-1.7h10.1v1.7h-4v15.1H137.3z"/>
			<path d="M147.6,187.3v-16.8h2v16.8H147.6z"/>
			<path d="M164,187.3l-7-12.5v12.5h-2v-16.8h2l6.9,12.3v-12.3h2v16.8H164z"/>
			<path d="M170.9,178.9c0-5.2,2.6-8.7,6.5-8.7c2.5,0,4,1.4,5,3.2l-1.6,0.9c-0.7-1.3-1.8-2.2-3.4-2.2c-2.7,0-4.5,2.8-4.5,6.9
				c0,4.1,1.7,6.9,4.5,6.9c1.4,0,2.6-0.7,3.2-1.4v-3.9h-4v-1.7h5.9v6.5c-1.2,1.5-3,2.5-5.1,2.5C173.5,187.6,170.9,184.1,170.9,178.9
				z"/>
		</g>
	</g>
</g>
</svg>
