<svg baseProfile="tiny" xmlns="http://www.w3.org/2000/svg" viewBox="0 0 56.69 56.69"><path fill-rule="evenodd" fill="#FFD41C" d="M27.687 43.212h3.12s.942-.105 1.421-.623c.446-.479.431-1.376.431-1.376s-.06-4.177 1.882-4.8c1.919-.613 4.379 4.043 6.981 5.842 1.972 1.351 3.47 1.062 3.47 1.062l6.969-.105s3.646-.224 1.921-3.09c-.147-.229-1.012-2.129-5.184-6.002-4.372-4.048-3.786-3.395 1.478-10.419 3.208-4.262 4.489-6.88 4.088-7.996-.379-1.067-2.737-.788-2.737-.788l-7.846.055s-.588-.08-1.019.18c-.421.249-.693.837-.693.837s-1.238 3.31-2.896 6.122c-3.497 5.932-4.893 6.251-5.466 5.877-1.326-.857-.992-3.445-.992-5.294 0-5.743.867-8.14-1.7-8.759-.855-.209-1.483-.344-3.664-.369-2.799-.025-5.172.005-6.513.668-.892.433-1.583 1.411-1.162 1.466.516.065 1.693.314 2.318 1.166.802 1.092.773 3.549.773 3.549s.464 6.77-1.082 7.612c-1.057.573-2.507-.598-5.618-5.992-1.598-2.752-2.804-5.808-2.804-5.808s-.234-.558-.648-.867c-.506-.374-1.206-.489-1.206-.489l-7.457.045s-1.122.03-1.531.523c-.366.429-.03 1.326-.03 1.326s5.84 13.659 12.45 20.543c6.064 6.313 12.946 5.904 12.946 5.904z"/></svg>